<?xml version="1.0" encoding="utf-8"?>
<!-- Generator: Adobe Illustrator 23.0.4, SVG Export Plug-In . SVG Version: 6.00 Build 0)  -->
<svg version="1.1" id="Layer_1" xmlns="http://www.w3.org/2000/svg" xmlns:xlink="http://www.w3.org/1999/xlink" x="0px" y="0px"
	 viewBox="0 0 148.7 240.2" style="enable-background:new 0 0 148.7 240.2;" xml:space="preserve">
<style type="text/css">
	.st0{fill:#F49C10;}
	.st1{fill:#F35A05;}
	.st2{display:none;fill:#FFFFFF;}
	.st3{fill:#D71B19;}
	.st4{fill:#F0CF25;}
</style>
<g>
	<path class="st0" d="M74.4,240.2C74.4,240.2,74.4,240.2,74.4,240.2c-64-33.6-83-52.6-71-87.5c11.9-34.9,21.5-63.4,21.5-63.4h17.8
		l-39-9.6l2.7-50.3l24.8-10.7v32.7L57.3,44V7.4L74.3,0l17.6,7.6V44l26.2,7.3V18.8l24.3,10.4l1.6,50.1L106,89.2h17.8
		c0,0,9.5,28.6,21.5,63.4C157.3,187.5,138.3,206.5,74.4,240.2z"/>
	<path class="st1" d="M74.7,93.1v120.9l29.9,5.9c0,0,10.6-13.8,14.7-19.4c4.1-5.6,16.4-24.2,16.4-25.7c0-1.5-1.5-34.2-2.2-35.4
		c-0.7-1.1-20.1-48.4-20.1-48.4H88.7L74.7,93.1z"/>
	<path class="st2" d="M104.6,195.3c-6.8,5.2-16.6,11.2-30.2,18.6c-13.2-7.1-22.8-13-29.6-18.1l3.4-47.5c0.5-6.9,3.7-13,8.4-17.4
		c4.7-4.4,11.1-7,18-7c13.8,0,25.3,10.6,26.4,24.4L104.6,195.3z"/>
	<path class="st3" d="M74.4,240.2v-26.2c58.9-28.6,54.3-58.5,47.9-78.6c-6.3-20.1-14.1-42.2-14.1-42.2H74.7l32.9-18.4l-33.3-8.6V0
		l17.6,7.6V44l26.2,7.3V18.8l24.3,10.4l1.6,50.1L106,89.2h17.8c0,0,9.5,28.6,21.5,63.4C157.3,187.5,138.3,206.5,74.4,240.2z"/>
	<path class="st4" d="M74.4,240.2v-26.2c-58.9-28.6-54.3-58.5-47.9-78.6c6.3-20.1,14.1-42.2,14.1-42.2h33.5L41.2,74.7l33.3-8.6V0
		L56.9,7.6V44l-26.2,7.3V18.8L6.5,29.3L3.6,79.6l39.2,9.6h-18c0,0-9.3,28.6-21.3,63.4C-8.4,187.5,10.6,206.5,74.4,240.2z"/>
</g>
</svg>
